<svg xmlns="http://www.w3.org/2000/svg" viewBox="0 0 64 64">
  <defs>
    <linearGradient id="g" x1="0%" y1="0%" x2="100%" y2="100%">
      <stop offset="0%" stop-color="#6366f1"/>
      <stop offset="100%" stop-color="#06b6d4"/>
    </linearGradient>
  </defs>
  <rect width="64" height="64" rx="14" fill="url(#g)"/>
  <!-- Brain/AI icon -->
  <g fill="none" stroke="#fff" stroke-width="2.2" stroke-linecap="round" stroke-linejoin="round" transform="translate(12,12) scale(1.25)">
    <!-- Left hemisphere -->
    <path d="M16 4c-4 0-7 2-8 5C5 9.5 3 12 3 15c0 2.5 1.2 4.7 3 6 0 2 .8 3.8 2 5 1.2 1.2 3 2 5 2h3"/>
    <!-- Right hemisphere -->
    <path d="M16 4c4 0 7 2 8 5 3 .5 5 3 5 6 0 2.5-1.2 4.7-3 6 0 2-.8 3.8-2 5-1.2 1.2-3 2-5 2h-3"/>
    <!-- Center line -->
    <line x1="16" y1="4" x2="16" y2="28"/>
    <!-- Neural connections -->
    <circle cx="10" cy="12" r="1.5" fill="#fff"/>
    <circle cx="22" cy="12" r="1.5" fill="#fff"/>
    <circle cx="8" cy="20" r="1.5" fill="#fff"/>
    <circle cx="24" cy="20" r="1.5" fill="#fff"/>
    <line x1="10" y1="12" x2="16" y2="16"/>
    <line x1="22" y1="12" x2="16" y2="16"/>
    <line x1="8" y1="20" x2="16" y2="16"/>
    <line x1="24" y1="20" x2="16" y2="16"/>
    <circle cx="16" cy="16" r="2" fill="#fff"/>
  </g>
</svg>
